<?xml version="1.0" standalone="no"?>
<!DOCTYPE svg PUBLIC "-//W3C//DTD SVG 20010904//EN"
 "http://www.w3.org/TR/2001/REC-SVG-20010904/DTD/svg10.dtd">
<svg version="1.0" xmlns="http://www.w3.org/2000/svg"
 width="150.000000pt" height="125.000000pt" viewBox="0 0 200.000000 200.000000"
 preserveAspectRatio="xMidYMid meet">

<g transform="translate(0.000000,200.000000) scale(0.100000,-0.100000)"
fill="#ffffff" stroke="none">
<path d="M176 1208 c-10 -127 -2 -481 10 -485 16 -5 26 191 22 396 -2 106 -7
156 -15 158 -7 3 -13 -20 -17 -69z"/>
<path d="M1686 1218 c-9 -12 -18 -48 -22 -80 -6 -54 -8 -58 -33 -58 -31 0 -71
-25 -71 -45 0 -21 37 -37 68 -30 l27 6 0 -89 c0 -103 15 -136 71 -151 39 -11
60 -7 68 15 9 23 -4 42 -35 53 -29 10 -29 10 -29 95 l0 86 34 0 c52 0 66 9 66
41 0 31 -8 34 -64 30 l-29 -3 7 70 c6 59 5 70 -9 76 -26 10 -33 7 -49 -16z"/>
<path d="M859 1189 c-51 -28 -60 -38 -88 -98 -25 -55 -31 -80 -31 -138 0 -63
3 -76 33 -119 38 -58 79 -76 152 -68 62 8 115 34 149 74 28 34 33 59 14 78
-20 20 -40 14 -77 -27 -44 -48 -114 -64 -156 -37 -67 44 -45 209 37 267 26 19
46 24 96 24 71 0 91 15 68 50 -11 16 -26 20 -77 22 -55 3 -72 -1 -120 -28z"/>
<path d="M392 1183 c-85 -14 -93 -17 -99 -41 -6 -26 17 -54 40 -47 7 2 31 6
53 9 41 6 42 5 48 -28 4 -19 7 -90 7 -158 1 -68 5 -131 10 -140 11 -21 42 -24
57 -5 18 22 23 111 12 226 -6 62 -8 116 -5 119 3 3 34 5 69 4 55 -2 66 1 71
17 19 60 -69 75 -263 44z"/>
<path d="M1336 1082 c-59 -22 -73 -32 -97 -70 -33 -53 -46 -121 -30 -160 16
-39 70 -72 115 -72 31 0 45 7 70 34 l32 33 28 -23 c34 -30 51 -30 70 -2 14 20
13 24 -14 54 -27 32 -50 88 -50 126 0 26 -30 96 -43 101 -7 2 -43 -7 -81 -21z
m48 -97 c8 -40 -22 -121 -49 -131 -22 -9 -55 24 -55 53 0 47 50 113 86 113 7
0 15 -16 18 -35z"/>
</g>
</svg>
